<?xml version="1.0" encoding="UTF-8"?><svg xmlns="http://www.w3.org/2000/svg" xmlns:xlink="http://www.w3.org/1999/xlink" width="375pt" zoomAndPan="magnify" viewBox="0 0 375 374.999991" height="374.999991pt" preserveAspectRatio="xMidYMid meet" version="1.2"><defs><clipPath xml:id="clip1" id="clip1"><path d="M 200 176.722656 L 323.828125 176.722656 L 323.828125 332.65625 L 200 332.65625 Z M 200 176.722656 "/></clipPath><clipPath xml:id="clip2" id="clip2"><path d="M 37 53.65625 L 201 53.65625 L 201 177 L 37 177 Z M 37 53.65625 "/></clipPath><clipPath xml:id="clip3" id="clip3"><path d="M 77 176.722656 L 200.746094 176.722656 L 200.746094 332.65625 L 77 332.65625 Z M 77 176.722656 "/></clipPath><clipPath xml:id="clip4" id="clip4"><path d="M 9.164062 178 L 201 178 L 201 262 L 9.164062 262 Z M 9.164062 178 "/></clipPath><clipPath xml:id="clip5" id="clip5"><path d="M 200 53.65625 L 366.914062 53.65625 L 366.914062 177 L 200 177 Z M 200 53.65625 "/></clipPath><clipPath xml:id="clip6" id="clip6"><path d="M 9.164062 176 L 201 176 L 201 261 L 9.164062 261 Z M 9.164062 176 "/></clipPath><clipPath xml:id="clip7" id="clip7"><path d="M 323 124 L 366.914062 124 L 366.914062 177 L 323 177 Z M 323 124 "/></clipPath></defs><g xml:id="surface1" id="surface1"><rect x="0" width="375" y="0" height="374.999991" style="fill:rgb(100%,100%,100%);fill-opacity:1;stroke:none;"/><rect x="0" width="375" y="0" height="374.999991" style="fill:rgb(100%,100%,100%);fill-opacity:1;stroke:none;"/><rect x="0" width="375" y="0" height="374.999991" style="fill:rgb(100%,100%,100%);fill-opacity:1;stroke:none;"/><g clip-rule="nonzero" clip-path="url(#clip1)"><path style=" stroke:none;fill-rule:evenodd;fill:rgb(90.19928%,65.489197%,26.669312%);fill-opacity:1;" d="M 200.210938 332.679688 L 323.246094 261.359375 L 323.246094 176.804688 L 200.210938 248.128906 L 200.210938 332.679688 "/></g><path style=" stroke:none;fill-rule:evenodd;fill:rgb(21.958923%,27.839661%,30.198669%);fill-opacity:1;" d="M 315.929688 257.5625 L 315.929688 246.683594 L 316.875 246.132812 L 315.542969 242.710938 L 314.207031 247.679688 L 315.15625 247.132812 L 315.15625 258.011719 Z M 312.65625 259.460938 L 312.65625 248.578125 L 313.558594 248.054688 L 312.269531 244.609375 L 310.9375 249.574219 L 311.839844 249.050781 L 311.839844 259.933594 Z M 309.988281 262.753906 L 317.820312 258.214844 L 317.820312 257.265625 L 309.988281 261.804688 Z M 293.328125 255.640625 C 295.652344 254.292969 297.632812 254.792969 298.449219 256.664062 C 297.894531 256.539062 297.375 256.691406 296.8125 257.613281 C 296.253906 257.4375 295.695312 257.714844 295.222656 258.535156 C 294.703125 258.535156 294.144531 258.660156 293.585938 258.9375 L 293.585938 269.816406 C 293.585938 270.316406 293.757812 270.617188 294.0625 270.789062 C 294.320312 270.9375 294.703125 270.914062 295.136719 270.664062 C 295.566406 270.414062 295.953125 269.992188 296.210938 269.542969 C 296.472656 269.09375 296.640625 268.59375 296.640625 268.144531 L 297.246094 267.792969 C 297.203125 268.421875 296.988281 269.140625 296.597656 269.765625 C 296.253906 270.414062 295.695312 271.039062 295.136719 271.363281 C 294.578125 271.6875 294.019531 271.714844 293.671875 271.460938 C 293.285156 271.238281 293.027344 270.789062 293.027344 270.140625 L 293.027344 259.257812 C 292.511719 259.609375 291.949219 260.082031 291.390625 260.757812 C 290.875 260.355469 290.359375 260.707031 289.839844 261.65625 C 289.28125 261.429688 288.765625 261.828125 288.207031 262.605469 C 289.023438 259.78125 291.003906 256.988281 293.328125 255.640625 Z M 300.730469 251.300781 L 306.84375 247.753906 L 306.84375 253.59375 C 306.84375 255.390625 305.683594 257.5625 304.21875 258.660156 L 304.21875 265.148438 L 306.113281 264.050781 L 306.113281 265 L 301.464844 267.695312 L 301.464844 266.75 L 303.402344 265.625 L 303.402344 259.132812 C 301.894531 259.757812 300.730469 258.9375 300.730469 257.136719 L 300.730469 251.300781 "/><path style=" stroke:none;fill-rule:evenodd;fill:rgb(85.488892%,59.999084%,32.159424%);fill-opacity:1;" d="M 200.210938 248.128906 L 323.242188 176.800781 L 200.210938 105.46875 L 77.175781 176.800781 L 200.210938 248.128906 "/><g clip-rule="nonzero" clip-path="url(#clip2)"><path style=" stroke:none;fill-rule:evenodd;fill:rgb(94.898987%,78.819275%,50.19989%);fill-opacity:1;" d="M 37.140625 124.988281 L 160.175781 53.660156 L 200.210938 105.46875 L 77.175781 176.800781 L 37.140625 124.988281 "/></g><path style=" stroke:none;fill-rule:evenodd;fill:rgb(85.099792%,63.529968%,35.688782%);fill-opacity:1;" d="M 200.210938 249.621094 L 200.210938 248.128906 L 323.242188 178.292969 L 362.25 171.386719 L 362.25 172.878906 L 239.214844 244.207031 L 200.210938 249.621094 "/><g clip-rule="nonzero" clip-path="url(#clip3)"><path style=" stroke:none;fill-rule:evenodd;fill:rgb(79.998779%,44.709778%,11.369324%);fill-opacity:1;" d="M 77.171875 261.359375 L 200.207031 332.679688 L 200.210938 248.128906 L 77.175781 176.804688 L 77.171875 261.359375 "/></g><g clip-rule="nonzero" clip-path="url(#clip4)"><path style=" stroke:none;fill-rule:evenodd;fill:rgb(71.369934%,49.01886%,28.62854%);fill-opacity:1;" d="M 9.375 190.277344 L 132.410156 261.601562 L 200.210938 249.722656 L 200.210938 248.128906 L 77.175781 178.394531 L 9.375 188.683594 L 9.375 190.277344 "/></g><g clip-rule="nonzero" clip-path="url(#clip5)"><path style=" stroke:none;fill-rule:evenodd;fill:rgb(94.898987%,78.819275%,50.19989%);fill-opacity:1;" d="M 200.210938 105.476562 L 323.246094 176.804688 L 366.707031 124.984375 L 243.671875 53.660156 L 200.210938 105.476562 "/></g><path style=" stroke:none;fill-rule:evenodd;fill:rgb(94.898987%,78.819275%,50.19989%);fill-opacity:1;" d="M 200.210938 248.128906 L 323.242188 176.800781 L 362.25 171.386719 L 239.214844 242.710938 L 200.210938 248.128906 "/><path style=" stroke:none;fill-rule:evenodd;fill:rgb(76.858521%,54.119873%,30.198669%);fill-opacity:1;" d="M 239.214844 242.710938 L 239.214844 244.207031 L 200.210938 249.621094 L 200.210938 248.128906 L 239.214844 242.710938 "/><path style=" stroke:none;fill-rule:evenodd;fill:rgb(90.589905%,65.879822%,27.449036%);fill-opacity:1;" d="M 200.210938 105.476562 L 200.210938 168.269531 L 129.414062 207.085938 L 77.175781 176.804688 L 200.210938 105.476562 "/><path style=" stroke:none;fill-rule:evenodd;fill:rgb(79.998779%,44.709778%,11.369324%);fill-opacity:1;" d="M 200.210938 105.476562 L 200.210938 168.269531 L 267.8125 209.757812 L 323.242188 176.800781 L 200.210938 105.476562 "/><path style=" stroke:none;fill-rule:evenodd;fill:rgb(82.749939%,51.759338%,14.898682%);fill-opacity:1;" d="M 200.210938 105.46875 L 187.0625 171.96875 L 124.839844 204.515625 L 129.414062 207.085938 L 200.210938 168.269531 L 200.210938 105.46875 "/><g clip-rule="nonzero" clip-path="url(#clip6)"><path style=" stroke:none;fill-rule:evenodd;fill:rgb(94.898987%,78.819275%,50.19989%);fill-opacity:1;" d="M 9.375 188.683594 L 132.410156 260.007812 L 200.210938 248.128906 L 77.175781 176.804688 L 9.375 188.683594 "/></g><path style=" stroke:none;fill-rule:evenodd;fill:rgb(71.369934%,49.01886%,28.62854%);fill-opacity:1;" d="M 37.140625 124.988281 L 37.140625 127.074219 L 75.710938 177.0625 L 77.175781 176.804688 L 37.140625 124.988281 "/><path style=" stroke:none;fill-rule:evenodd;fill:rgb(81.17981%,69.018555%,54.508972%);fill-opacity:1;" d="M 204.042969 304.355469 L 224.488281 292.5 C 224.792969 292.324219 225.050781 292.476562 225.050781 292.875 L 225.050781 314.289062 C 225.050781 314.6875 224.792969 315.136719 224.488281 315.3125 L 204.042969 327.167969 C 203.742188 327.339844 203.484375 327.191406 203.484375 326.792969 L 203.484375 305.378906 C 203.484375 304.980469 203.742188 304.53125 204.042969 304.355469 "/><path style=" stroke:none;fill-rule:evenodd;fill:rgb(95.289612%,79.60968%,65.489197%);fill-opacity:1;" d="M 204.992188 305.554688 L 223.542969 294.796875 L 223.542969 314.0625 L 204.992188 324.820312 L 204.992188 305.554688 "/><g clip-rule="nonzero" clip-path="url(#clip7)"><path style=" stroke:none;fill-rule:evenodd;fill:rgb(82.749939%,51.759338%,14.898682%);fill-opacity:1;" d="M 366.707031 124.984375 L 366.707031 127.242188 L 324.953125 176.5625 L 323.242188 176.800781 L 366.707031 124.984375 "/></g></g></svg>