<svg xmlns="http://www.w3.org/2000/svg" viewBox="0 0 249.77 249.39">
    <defs>
        <style>
            .cls-1 {
                fill: #FF9300;
            }
        </style>
    </defs>
    <g id="Layer_2" data-name="Layer 2">
        <g id="Layer_1-2" data-name="Layer 1">
            <path class="cls-1"
                d="M119.65,34.26c-.85-2.42-1.29-3.53-1.65-4.67-3.64-11.53-5.78-12.09-14.25-3.73-15.41,15.22-31.24,30.05-46,45.84A53.88,53.88,0,0,0,46.25,92c-5.71,18.32-10,37.09-15.14,55.59C27.82,159.35,20.63,166.91,10,170.84-8.88,134.3-5.1,60.7,57,20,113.31-16.84,182.68,2.3,210.92,36.27L164.26,63.16c-11.62,6.7-23.37,13.21-34.84,20.16-9.51,5.76-14.67,20.49-10.4,30.48.66,1.52,6.29,2.6,8.44,1.52C137,110.54,146,104.83,155.33,99.6c8.09-4.54,10.42-3.32,10.5,5.79.15,15.87.08,31.74,0,47.6s-7.1,27.39-20.78,35.13c-7.7,4.36-15.36,8.77-22.94,13.31a24.77,24.77,0,0,0-12,26.59c.94,5.07,3.56,6,7.78,3.62C144,216.53,170.58,202.08,196,185.82c6.93-4.44,12.22-13.73,15-21.91,5.9-17.24,9.63-35.24,14.32-52.9,2.72-10.23,7-19.39,17.07-24.71,16.14,35.63,8,102.94-45.85,140.7C146.4,262.19,80.21,253.05,45.4,219.43c10.39-6.09,20.52-12.09,30.71-18,16.89-9.77,33.86-19.4,50.73-29.2,10.91-6.34,16.17-20.14,12.26-31.68-1.86-5.49-5.38-3.65-8.71-1.76-9.54,5.42-19,11-28.57,16.37-7.52,4.19-10,2.9-10.09-5.46-.17-16.47-.31-33,.07-49.43.33-14.09,6.66-25.19,18.78-32.62,7.8-4.78,15.68-9.45,23.74-13.77,10.13-5.43,13.87-13.91,13.34-25-.33-6.68-2.49-9.26-9-5.38C132.63,27.11,126.48,30.42,119.65,34.26Z"
                transform="translate(0 0)" />
        </g>
    </g>
</svg>