<svg xmlns="http://www.w3.org/2000/svg" viewBox="0 0 791 335.43">
    <defs>
        <style>
            .cls-1 {
                fill: #30326f;
            }

            .cls-2 {
                fill: #FF9300;
            }

            .cls-3 {
                font-size: 90.61px;
                fill: #fff;
                font-family: Montserrat-Bold, Montserrat,Sans-Serif;
                font-weight: 700;
            }

            .cls-4 {
                letter-spacing: -0.01em;
            }

            .cls-5 {
                letter-spacing: 0.01em;
            }
        </style>
    </defs>
    <g id="Layer_2" data-name="Layer 2">
        <g id="Layer_1-2" data-name="Layer 1">
            <rect class="cls-1" width="791" height="335.43" />
            <path class="cls-2"
                d="M176.51,81c-.83-2.33-1.25-3.41-1.59-4.51-3.53-11.15-5.59-11.69-13.78-3.61C146.23,87.62,130.92,102,116.6,117.23a52.15,52.15,0,0,0-11.08,19.63c-5.52,17.72-9.64,35.87-14.64,53.76C87.7,202,80.74,209.31,70.49,213.12,52.2,177.78,55.86,106.6,115.92,67.26,170.37,31.6,237.46,50.12,264.78,83l-45.12,26c-11.25,6.48-22.61,12.77-33.7,19.49-9.2,5.57-14.19,19.82-10.06,29.48.64,1.48,6.09,2.51,8.17,1.47,9.21-4.62,18-10.14,27-15.2,7.82-4.4,10.07-3.21,10.15,5.6.15,15.35.08,30.69,0,46-.08,15.2-6.87,26.48-20.1,34-7.44,4.21-14.85,8.48-22.18,12.87a24,24,0,0,0-11.58,25.72c.91,4.9,3.45,5.85,7.53,3.49,25.26-14.6,50.93-28.58,75.48-44.3,6.71-4.3,11.82-13.29,14.52-21.19,5.72-16.68,9.32-34.08,13.86-51.17,2.63-9.89,6.8-18.75,16.5-23.89,15.62,34.45,7.7,99.55-44.34,136.07-48.48,34-112.49,25.19-146.16-7.32,10-5.89,19.85-11.69,29.7-17.39,16.34-9.44,32.75-18.76,49.07-28.24,10.55-6.13,15.64-19.48,11.85-30.64-1.8-5.31-5.2-3.53-8.42-1.7-9.23,5.24-18.36,10.66-27.63,15.83-7.27,4.05-9.68,2.81-9.76-5.28-.17-15.93-.3-31.88.07-47.8.31-13.63,6.44-24.37,18.16-31.55,7.54-4.63,15.17-9.14,23-13.32,9.8-5.25,13.41-13.45,12.9-24.16-.32-6.46-2.41-9-8.73-5.2C189.07,74.11,183.11,77.31,176.51,81Z" />
            <text class="cls-3" transform="translate(373.95 195.4)">
                <tspan class="cls-4">s</tspan>
                <tspan x="47.21" y="0">y</tspan>
                <tspan class="cls-5" x="101.39" y="0">n</tspan>
                <tspan x="164.54" y="0">deo</tspan>
            </text>
        </g>
    </g>
</svg>