<?xml version="1.0" encoding="UTF-8"?>
<svg xmlns="http://www.w3.org/2000/svg" xmlns:xlink="http://www.w3.org/1999/xlink" width="233.25pt" height="233.249995pt" viewBox="0 0 233.25 233.249995" version="1.2">
<defs>
<clipPath id="clip1">
  <path d="M 47.523438 193 L 177 193 L 177 215.476562 L 47.523438 215.476562 Z M 47.523438 193 "/>
</clipPath>
<clipPath id="clip2">
  <path d="M 80 17.363281 L 178 17.363281 L 178 99 L 80 99 Z M 80 17.363281 "/>
</clipPath>
</defs>
<g id="surface1">
<g clip-path="url(#clip1)" clip-rule="nonzero">
<path style=" stroke:none;fill-rule:evenodd;fill:rgb(41.178894%,72.938538%,78.819275%);fill-opacity:1;" d="M 112.132812 193.925781 C 147.742188 193.925781 176.65625 198.835938 176.65625 204.886719 C 176.65625 210.933594 147.742188 215.847656 112.132812 215.847656 C 76.519531 215.847656 47.605469 210.933594 47.605469 204.886719 C 47.605469 198.835938 76.519531 193.925781 112.132812 193.925781 "/>
</g>
<path style=" stroke:none;fill-rule:evenodd;fill:rgb(100%,100%,100%);fill-opacity:1;" d="M 157.464844 199.464844 C 157.464844 199.464844 164.683594 199.71875 168.59375 201.796875 C 170.238281 202.671875 171.292969 203.867188 170.894531 205.527344 C 170.878906 205.597656 170.921875 205.664062 170.988281 205.679688 C 171.058594 205.699219 171.125 205.65625 171.144531 205.585938 C 171.566406 203.808594 170.472656 202.511719 168.710938 201.574219 C 164.761719 199.476562 157.472656 199.210938 157.472656 199.210938 C 157.402344 199.207031 157.34375 199.261719 157.34375 199.332031 C 157.339844 199.402344 157.394531 199.464844 157.464844 199.464844 "/>
<path style=" stroke:none;fill-rule:evenodd;fill:rgb(100%,100%,100%);fill-opacity:1;" d="M 51.953125 204.675781 C 51.953125 204.675781 52.738281 205.980469 55.273438 207.273438 C 56.671875 207.988281 58.609375 208.703125 61.253906 209.191406 C 61.324219 209.207031 61.390625 209.160156 61.402344 209.089844 C 61.414062 209.019531 61.371094 208.953125 61.300781 208.941406 C 58.6875 208.457031 56.769531 207.753906 55.386719 207.046875 C 52.9375 205.792969 52.171875 204.542969 52.171875 204.542969 C 52.132812 204.484375 52.058594 204.464844 51.996094 204.503906 C 51.9375 204.539062 51.917969 204.617188 51.953125 204.675781 "/>
<path style=" stroke:none;fill-rule:evenodd;fill:rgb(94.898987%,36.859131%,5.099487%);fill-opacity:1;" d="M 148.035156 158.003906 L 133.289062 204.328125 C 133.097656 204.859375 133.371094 205.453125 133.902344 205.644531 C 134.433594 205.839844 135.023438 205.566406 135.21875 205.03125 L 153.703125 160.074219 C 154.273438 158.507812 153.464844 156.769531 151.898438 156.199219 C 150.335938 155.628906 148.601562 156.4375 148.035156 158.003906 "/>
<path style=" stroke:none;fill-rule:evenodd;fill:rgb(94.898987%,36.859131%,5.099487%);fill-opacity:1;" d="M 162.480469 153.445312 L 180.496094 198.59375 C 180.6875 199.128906 181.273438 199.410156 181.808594 199.222656 C 182.34375 199.03125 182.621094 198.445312 182.433594 197.910156 L 168.167969 151.433594 C 167.613281 149.859375 165.890625 149.035156 164.320312 149.589844 C 162.75 150.144531 161.925781 151.871094 162.480469 153.445312 "/>
<path style=" stroke:none;fill-rule:evenodd;fill:rgb(0%,0%,0%);fill-opacity:1;" d="M 165.339844 103.945312 C 163.160156 107.476562 163.425781 118.625 162.402344 125.695312 C 161.257812 133.621094 156.914062 143.214844 150.269531 147.90625 C 144.953125 151.664062 137.789062 153.671875 136.832031 157.695312 C 135.6875 162.511719 147.589844 163.355469 153.675781 163.085938 C 173.105469 162.238281 184.527344 150.542969 184.921875 133.160156 C 185.109375 124.804688 180.019531 108.308594 175.476562 104.496094 C 172.476562 101.972656 167.117188 101.058594 165.339844 103.945312 "/>
<path style=" stroke:none;fill-rule:evenodd;fill:rgb(100%,100%,100%);fill-opacity:1;" d="M 172.6875 120.128906 C 172.984375 125.855469 172.414062 132.375 170.25 138.402344 C 168.21875 144.046875 164.785156 149.261719 159.34375 152.976562 C 159.285156 153.015625 159.269531 153.097656 159.308594 153.152344 C 159.347656 153.210938 159.429688 153.226562 159.488281 153.1875 C 164.976562 149.4375 168.4375 144.183594 170.484375 138.488281 C 172.664062 132.429688 173.238281 125.871094 172.941406 120.117188 C 172.9375 120.046875 172.878906 119.992188 172.808594 119.996094 C 172.738281 120 172.683594 120.058594 172.6875 120.128906 "/>
<path style=" stroke:none;fill-rule:evenodd;fill:rgb(0%,0%,0%);fill-opacity:1;" d="M 90.726562 125.457031 L 87.324219 125.457031 L 87.324219 202.183594 L 90.726562 202.183594 L 90.726562 125.457031 "/>
<path style=" stroke:none;fill-rule:evenodd;fill:rgb(94.898987%,68.629456%,5.099487%);fill-opacity:1;" d="M 120.617188 123.816406 L 59.582031 123.816406 L 59.582031 129.644531 L 120.617188 129.644531 L 120.617188 123.816406 "/>
<path style=" stroke:none;fill-rule:evenodd;fill:rgb(100%,100%,100%);fill-opacity:1;" d="M 64.785156 126.933594 L 114.8125 126.953125 C 114.882812 126.953125 114.941406 126.894531 114.941406 126.824219 C 114.941406 126.753906 114.882812 126.695312 114.8125 126.695312 L 64.785156 126.679688 C 64.714844 126.679688 64.660156 126.738281 64.660156 126.808594 C 64.660156 126.878906 64.714844 126.933594 64.785156 126.933594 "/>
<path style=" stroke:none;fill-rule:evenodd;fill:rgb(0%,0%,0%);fill-opacity:1;" d="M 105.582031 121.386719 L 78.699219 121.386719 C 78.699219 121.386719 78.699219 122.214844 78.699219 122.933594 C 78.699219 123.207031 78.808594 123.472656 79.003906 123.667969 C 79.195312 123.863281 79.5 124.003906 79.773438 124.003906 C 84.710938 124.003906 105.582031 123.96875 105.582031 123.96875 L 105.582031 121.386719 "/>
<path style=" stroke:none;fill-rule:evenodd;fill:rgb(0%,0%,0%);fill-opacity:1;" d="M 75.0625 105.121094 C 75.0625 105.121094 75 105.140625 74.898438 105.171875 C 74.007812 105.433594 73.496094 106.371094 73.757812 107.261719 C 74.78125 110.761719 77.203125 119.019531 78.269531 122.664062 C 78.558594 123.648438 79.589844 124.214844 80.570312 123.925781 C 80.574219 123.925781 80.574219 123.925781 80.574219 123.925781 L 75.0625 105.121094 "/>
<g clip-path="url(#clip2)" clip-rule="nonzero">
<path style=" stroke:none;fill-rule:evenodd;fill:rgb(0%,0%,0%);fill-opacity:1;" d="M 177.929688 18.65625 C 177.929688 17.953125 177.355469 17.378906 176.65625 17.378906 L 81.742188 17.382812 C 81.042969 17.382812 80.472656 17.953125 80.472656 18.65625 L 80.476562 96.800781 C 80.476562 97.5 81.042969 98.066406 81.742188 98.066406 L 176.65625 98.0625 C 177.351562 98.0625 177.917969 97.496094 177.917969 96.800781 Z M 83.011719 95.53125 L 175.390625 95.535156 L 175.382812 19.929688 L 83.015625 19.929688 L 83.011719 95.53125 "/>
</g>
<path style=" stroke:none;fill-rule:evenodd;fill:rgb(0%,0%,0%);fill-opacity:1;" d="M 130.375 36.730469 C 130.367188 36.785156 130.363281 36.859375 130.355469 36.925781 C 130.285156 37.816406 130.238281 39.707031 130.207031 42.289062 C 130.023438 57.597656 130.472656 96.785156 130.472656 96.785156 C 130.480469 97.488281 129.914062 98.066406 129.214844 98.074219 C 128.511719 98.082031 127.933594 97.515625 127.925781 96.8125 C 127.925781 96.8125 127.484375 57.585938 127.664062 42.257812 C 127.695312 39.59375 127.746094 37.640625 127.820312 36.71875 C 127.855469 36.273438 127.917969 35.984375 127.960938 35.859375 C 128.140625 35.351562 128.476562 35.167969 128.664062 35.082031 C 129.042969 34.910156 129.429688 34.914062 129.820312 35.132812 C 130.386719 35.449219 130.617188 36.140625 130.375 36.730469 Z M 129.84375 37.34375 C 129.484375 37.554688 129.035156 37.585938 128.640625 37.390625 C 129.042969 37.597656 129.449219 37.605469 129.84375 37.34375 "/>
<path style=" stroke:none;fill-rule:evenodd;fill:rgb(0%,0%,0%);fill-opacity:1;" d="M 81.742188 37.519531 L 176.65625 37.519531 C 177.355469 37.519531 177.929688 36.949219 177.929688 36.246094 C 177.929688 35.539062 177.355469 34.96875 176.65625 34.96875 L 81.742188 34.96875 C 81.042969 34.96875 80.46875 35.539062 80.46875 36.242188 C 80.46875 36.945312 81.042969 37.519531 81.742188 37.519531 "/>
<path style=" stroke:none;fill-rule:evenodd;fill:rgb(41.178894%,72.938538%,78.819275%);fill-opacity:1;" d="M 93.09375 78.78125 C 91.542969 78.738281 90.5625 77.96875 89.9375 76.925781 C 88.558594 74.640625 89.175781 70.667969 89.175781 70.667969 C 89.261719 70.15625 89.742188 69.808594 90.25 69.898438 C 90.757812 69.984375 91.097656 70.46875 91.011719 70.980469 C 91.011719 70.980469 90.425781 74.144531 91.519531 75.957031 C 91.835938 76.484375 92.339844 76.839844 93.09375 76.894531 L 93.09375 72.242188 C 93.09375 71.722656 93.511719 71.300781 94.023438 71.300781 C 94.539062 71.300781 94.957031 71.722656 94.957031 72.242188 L 94.957031 77.765625 C 94.957031 77.773438 94.957031 77.785156 94.957031 77.792969 L 94.957031 81.65625 C 95.425781 81.484375 95.792969 81.175781 96.085938 80.800781 C 97.277344 79.257812 97.300781 76.769531 97.300781 76.769531 C 97.3125 76.25 97.738281 75.835938 98.25 75.847656 C 98.765625 75.859375 99.175781 76.289062 99.164062 76.808594 C 99.164062 76.808594 99.070312 79.976562 97.542969 81.949219 C 96.921875 82.757812 96.085938 83.382812 94.957031 83.605469 L 94.957031 90.734375 C 94.957031 91.253906 94.539062 91.675781 94.023438 91.675781 C 93.511719 91.675781 93.09375 91.253906 93.09375 90.734375 L 93.09375 78.78125 "/>
<path style=" stroke:none;fill-rule:evenodd;fill:rgb(0%,0%,0%);fill-opacity:1;" d="M 87.882812 82.476562 L 100.972656 82.476562 L 97.703125 95.683594 L 91.15625 95.683594 L 87.882812 82.476562 "/>
<path style=" stroke:none;fill-rule:evenodd;fill:rgb(100%,100%,100%);fill-opacity:1;" d="M 90.367188 84.429688 L 98.492188 84.394531 C 98.542969 84.394531 98.585938 84.351562 98.585938 84.300781 C 98.585938 84.246094 98.542969 84.207031 98.492188 84.207031 L 90.367188 84.242188 C 90.316406 84.242188 90.273438 84.285156 90.273438 84.335938 C 90.273438 84.386719 90.316406 84.429688 90.367188 84.429688 "/>
<path style=" stroke:none;fill-rule:evenodd;fill:rgb(100%,74.119568%,59.999084%);fill-opacity:1;" d="M 97.65625 183.804688 C 96.222656 183.875 90.734375 196.234375 87.355469 199.234375 C 83.21875 202.90625 84.535156 201.164062 79.40625 203.421875 C 76.988281 204.488281 70.730469 206.316406 71.636719 207.179688 C 72.546875 208.046875 79.023438 208.339844 84.855469 208.617188 C 87.695312 208.753906 92.402344 211.003906 94.082031 208.375 C 95.21875 206.597656 93.304688 205.738281 94.042969 203.878906 C 94.800781 201.960938 102.476562 191.269531 103.398438 190.167969 C 103.714844 189.796875 105.042969 187.042969 104.769531 186.8125 C 104.246094 186.371094 100.816406 185.996094 99.953125 185.652344 C 99.378906 185.421875 97.65625 183.804688 97.65625 183.804688 "/>
<path style=" stroke:none;fill-rule:evenodd;fill:rgb(100%,74.119568%,59.999084%);fill-opacity:1;" d="M 128.5 176.742188 C 127.601562 177.863281 132.675781 189.726562 132.664062 194.25 C 132.644531 199.789062 132.222656 197.640625 130.488281 202.980469 C 129.671875 205.496094 126.863281 211.394531 128.113281 211.289062 C 129.363281 211.1875 133.894531 206.539062 137.984375 202.367188 C 139.976562 200.332031 144.785156 198.316406 143.949219 195.308594 C 143.382812 193.273438 141.464844 194.132812 140.574219 192.34375 C 139.652344 190.496094 136.328125 177.796875 136.125 176.375 C 136.054688 175.890625 135.359375 172.914062 135.007812 172.960938 C 134.328125 173.0625 131.765625 175.371094 130.933594 175.789062 C 130.382812 176.066406 128.5 176.742188 128.5 176.742188 "/>
<path style=" stroke:none;fill-rule:evenodd;fill:rgb(94.898987%,68.629456%,5.099487%);fill-opacity:1;" d="M 140.394531 136.242188 C 140.636719 135.753906 137.503906 133.109375 137.265625 133.109375 C 135.042969 133.109375 132.554688 133.113281 130.441406 133.820312 C 124.324219 135.863281 117.160156 136.074219 114.089844 142.226562 C 112.140625 146.132812 115.03125 151.34375 116.507812 155.042969 C 117.972656 158.707031 127.898438 184.253906 129.792969 186.152344 C 129.855469 186.21875 137.273438 183.621094 138.957031 183.523438 C 139.617188 183.484375 134.007812 157.058594 132.289062 153.621094 C 131.941406 152.921875 131.753906 148.601562 132.289062 148.0625 C 134.382812 145.96875 136.210938 142.996094 138.402344 140.800781 C 139.597656 139.605469 139.699219 137.632812 140.394531 136.242188 "/>
<path style=" stroke:none;fill-rule:evenodd;fill:rgb(94.898987%,68.629456%,5.099487%);fill-opacity:1;" d="M 140.378906 130.851562 C 138.257812 131.195312 134.707031 133.1875 133.699219 133.523438 C 127.5625 135.574219 122.535156 139.753906 118.015625 144.277344 C 112.800781 149.5 111.957031 152.210938 108.269531 158.367188 C 105.003906 163.820312 102.375 170.414062 99.234375 175.785156 C 98.40625 177.199219 93.535156 187.042969 93.890625 187.691406 C 94.539062 188.878906 100.816406 191.964844 102.742188 192.832031 C 102.882812 192.894531 108.058594 186.871094 110.078125 184.039062 C 113.765625 178.867188 117.648438 174.398438 122.75 169.25 C 127.972656 163.988281 132.941406 159.8125 139.878906 156.832031 C 145.316406 154.5 155.285156 153.554688 157.007812 146.648438 C 158.265625 141.59375 158.992188 135.664062 155.195312 131.859375 C 153.25 129.910156 145.824219 130.1875 144.890625 130.1875 C 144.738281 130.1875 142.023438 130.585938 140.378906 130.851562 "/>
<path style=" stroke:none;fill-rule:evenodd;fill:rgb(100%,74.119568%,59.999084%);fill-opacity:1;" d="M 109.136719 96.503906 C 108.523438 96.8125 106.105469 96.753906 105.832031 96.273438 C 105.273438 95.300781 103.988281 93.527344 103.386719 92.847656 C 102.277344 91.597656 100.835938 91.359375 99.8125 90.855469 C 97.855469 89.898438 97.671875 87.445312 96.273438 85.695312 C 95.070312 84.1875 95.230469 82.941406 95.777344 82.867188 C 96.328125 82.792969 99.171875 84.9375 99.578125 85.253906 C 100.214844 85.753906 101.585938 86.46875 102.347656 85.910156 C 102.800781 85.574219 101.589844 83.496094 101.601562 82.820312 C 101.613281 82.332031 102.890625 82.683594 103.714844 83.621094 C 104.925781 84.992188 105.496094 85.308594 106.347656 86.726562 C 106.703125 87.320312 107.148438 87.875 107.550781 88.441406 C 108.832031 90.234375 112.058594 95.039062 109.136719 96.503906 "/>
<path style=" stroke:none;fill-rule:evenodd;fill:rgb(100%,74.119568%,59.999084%);fill-opacity:1;" d="M 108.839844 122.628906 C 108.824219 122.652344 108.285156 123.84375 108.117188 123.734375 C 107.878906 123.578125 103.144531 122.839844 102.203125 123.234375 C 99.039062 124.554688 97.265625 124.464844 94.089844 124.328125 C 93.035156 124.28125 87.925781 123.894531 89.101562 122.613281 C 90.59375 120.980469 93.621094 122.425781 95.566406 121.128906 C 96.5625 120.46875 94.84375 120.488281 94.191406 120.417969 C 93.59375 120.355469 91.171875 120.472656 92.460938 119.722656 C 94.582031 118.492188 97.550781 118.371094 100.515625 118.742188 C 102.882812 119.035156 105.503906 116.777344 106.617188 117.066406 C 108.4375 117.535156 108.839844 117.972656 109.496094 118.402344 C 110.355469 118.972656 109.371094 121.820312 108.839844 122.628906 "/>
<path style=" stroke:none;fill-rule:evenodd;fill:rgb(0%,0%,0%);fill-opacity:1;" d="M 145.1875 74.636719 C 144.492188 74.769531 139.921875 74.722656 139.921875 75.566406 C 139.929688 78.636719 140.273438 86.460938 140.273438 86.460938 L 151.054688 82.839844 C 151.054688 82.839844 152.265625 79.8125 151.914062 77.148438 C 151.808594 76.363281 151.753906 73.382812 151.167969 72.828125 C 150.796875 72.480469 146 74.484375 145.1875 74.636719 "/>
<path style=" stroke:none;fill-rule:evenodd;fill:rgb(100%,74.119568%,59.999084%);fill-opacity:1;" d="M 143.765625 77.652344 C 143.980469 78.152344 151.039062 75.746094 152.214844 76.671875 C 152.527344 76.917969 155.75 87.839844 155.621094 88.296875 C 155.09375 90.15625 146.785156 91.78125 146.640625 91.667969 C 146.484375 91.542969 143.765625 77.652344 143.765625 77.652344 "/>
<path style=" stroke:none;fill-rule:evenodd;fill:rgb(94.898987%,36.859131%,5.099487%);fill-opacity:1;" d="M 144.160156 95.621094 C 145.523438 90.175781 149.980469 86.226562 150.496094 86.097656 C 152.273438 85.652344 155.097656 85.566406 156.484375 86.953125 C 159.449219 89.925781 161.90625 94.304688 163.339844 98.601562 C 167.070312 109.820312 165.609375 134.667969 160.929688 144.042969 C 159.964844 145.976562 155.230469 145.457031 152.601562 144.582031 C 148.960938 143.375 144.570312 141.710938 141.375 140.644531 C 138.71875 139.757812 128.703125 135.5625 127.328125 133.277344 C 125.949219 130.992188 131.3125 129.648438 133.109375 126.9375 C 135.992188 122.582031 137.226562 117.519531 138.800781 112.789062 C 139.914062 109.449219 143.464844 98.398438 144.160156 95.621094 "/>
<path style=" stroke:none;fill-rule:evenodd;fill:rgb(94.898987%,36.859131%,5.099487%);fill-opacity:1;" d="M 153.054688 86.78125 C 152.828125 84.617188 144.988281 86.78125 143.703125 87.101562 C 140.90625 87.800781 139.488281 90.964844 137.074219 93.558594 C 132.605469 98.355469 128.40625 103.609375 122.996094 107.222656 C 118.65625 110.125 114.730469 112.261719 109.792969 113.914062 C 108.714844 114.273438 103.097656 116.390625 103.097656 116.390625 C 103.097656 116.390625 103.191406 123.152344 104.421875 124.378906 C 105.480469 125.445312 117.382812 123.183594 119.261719 122.800781 C 132.6875 120.066406 137.089844 117.335938 148.582031 103.394531 C 152.648438 98.453125 153.054688 86.78125 153.054688 86.78125 "/>
<path style=" stroke:none;fill-rule:evenodd;fill:rgb(94.898987%,36.859131%,5.099487%);fill-opacity:1;" d="M 109.636719 90.585938 C 109.53125 90.816406 103.800781 94.234375 104.105469 94.839844 C 105.359375 97.355469 107.527344 100.007812 109.417969 102.3125 C 112.738281 106.359375 115.113281 110.453125 117.875 113.21875 C 118.3125 113.65625 119.359375 113.738281 119.84375 113.578125 C 121.949219 112.875 125.523438 111.265625 126.996094 109.789062 C 127.605469 109.179688 127.132812 107.867188 126.078125 107.230469 C 121.757812 104.609375 117.683594 99.539062 114.277344 96.148438 C 113.605469 95.484375 109.636719 90.585938 109.636719 90.585938 "/>
<path style=" stroke:none;fill-rule:evenodd;fill:rgb(100%,74.119568%,59.999084%);fill-opacity:1;" d="M 145.695312 64.386719 C 143.585938 63.617188 140.503906 64.09375 140.378906 64.449219 C 140.082031 65.265625 138.496094 65.953125 138.195312 66.761719 C 137 69.972656 138.019531 71.652344 138.605469 74.570312 C 139.339844 78.226562 140.914062 81.125 144.816406 82.769531 C 147.582031 83.9375 149.765625 85.152344 152.925781 83.257812 C 162.796875 77.335938 153.957031 67.398438 145.695312 64.386719 "/>
<path style=" stroke:none;fill-rule:evenodd;fill:rgb(0%,0%,0%);fill-opacity:1;" d="M 163.457031 85.105469 C 160.675781 86.703125 149.335938 89.953125 149.335938 89.953125 C 149.335938 89.953125 150.039062 78.796875 150.324219 78.710938 C 152.691406 77.996094 152.453125 74.210938 150.117188 75.160156 C 147.941406 76.042969 148.683594 71.472656 143.957031 71.75 C 142.8125 71.816406 139.335938 72.449219 137.664062 71.957031 C 135.515625 71.328125 137.058594 63.734375 138.59375 61.628906 C 140.855469 58.527344 143.777344 57.628906 147.914062 57.808594 C 150.464844 57.917969 154.515625 58.398438 156.933594 61.234375 C 160.703125 65.65625 164.226562 84.660156 163.457031 85.105469 "/>
<path style=" stroke:none;fill-rule:evenodd;fill:rgb(0%,0%,0%);fill-opacity:1;" d="M 152.753906 54.683594 C 155.390625 54.683594 157.53125 56.828125 157.53125 59.46875 C 157.53125 62.109375 155.390625 64.253906 152.753906 64.253906 C 150.117188 64.253906 147.976562 62.109375 147.976562 59.46875 C 147.976562 56.828125 150.117188 54.683594 152.753906 54.683594 "/>
<path style=" stroke:none;fill-rule:evenodd;fill:rgb(100%,100%,100%);fill-opacity:1;" d="M 115.496094 151.589844 L 121.800781 167.027344 C 121.828125 167.09375 121.902344 167.125 121.96875 167.097656 C 122.03125 167.070312 122.0625 166.996094 122.039062 166.929688 L 115.730469 151.496094 C 115.707031 151.425781 115.628906 151.398438 115.566406 151.425781 C 115.5 151.449219 115.46875 151.523438 115.496094 151.589844 "/>
<path style=" stroke:none;fill-rule:evenodd;fill:rgb(100%,100%,100%);fill-opacity:1;" d="M 130.253906 147.679688 L 133.1875 157.488281 C 133.207031 157.554688 133.167969 157.628906 133.101562 157.648438 C 133.035156 157.667969 132.960938 157.628906 132.941406 157.5625 L 129.984375 147.671875 C 129.96875 147.621094 129.988281 147.566406 130.027344 147.53125 L 136.242188 142.605469 C 136.296875 142.566406 136.378906 142.574219 136.421875 142.628906 C 136.464844 142.683594 136.457031 142.765625 136.402344 142.808594 L 130.253906 147.679688 "/>
<path style=" stroke:none;fill-rule:evenodd;fill:rgb(100%,100%,100%);fill-opacity:1;" d="M 133.066406 133.246094 C 133.066406 133.246094 145.273438 139.644531 155.679688 141.1875 C 155.75 141.199219 155.8125 141.148438 155.824219 141.078125 C 155.835938 141.007812 155.789062 140.945312 155.71875 140.933594 C 145.347656 139.398438 133.1875 133.019531 133.1875 133.019531 C 133.125 132.984375 133.046875 133.007812 133.011719 133.074219 C 132.980469 133.132812 133.003906 133.210938 133.066406 133.246094 "/>
<path style=" stroke:none;fill-rule:evenodd;fill:rgb(100%,100%,100%);fill-opacity:1;" d="M 152.613281 93.667969 C 152.613281 93.667969 151.089844 98.597656 148.339844 103.492188 C 146.511719 106.742188 144.148438 109.980469 141.320312 111.738281 C 141.261719 111.777344 141.242188 111.855469 141.28125 111.914062 C 141.316406 111.976562 141.394531 111.992188 141.453125 111.957031 C 144.3125 110.179688 146.714844 106.90625 148.5625 103.617188 C 151.324219 98.699219 152.855469 93.742188 152.855469 93.742188 C 152.875 93.675781 152.839844 93.605469 152.769531 93.585938 C 152.703125 93.5625 152.632812 93.601562 152.613281 93.667969 "/>
<path style=" stroke:none;fill-rule:evenodd;fill:rgb(100%,100%,100%);fill-opacity:1;" d="M 123.390625 107.21875 C 123.390625 107.21875 120.226562 109.878906 117.863281 110.523438 C 117.792969 110.542969 117.753906 110.613281 117.773438 110.679688 C 117.789062 110.75 117.859375 110.789062 117.929688 110.769531 C 120.332031 110.113281 123.550781 107.414062 123.550781 107.414062 C 123.605469 107.367188 123.613281 107.285156 123.566406 107.234375 C 123.523438 107.179688 123.441406 107.171875 123.390625 107.21875 "/>
<path style=" stroke:none;fill-rule:evenodd;fill:rgb(100%,100%,100%);fill-opacity:1;" d="M 130.296875 183.773438 L 136.605469 182.128906 C 136.671875 182.109375 136.714844 182.039062 136.695312 181.972656 C 136.675781 181.902344 136.609375 181.863281 136.539062 181.878906 L 130.230469 183.527344 C 130.160156 183.546875 130.121094 183.617188 130.140625 183.683594 C 130.15625 183.75 130.226562 183.792969 130.296875 183.773438 "/>
<path style=" stroke:none;fill-rule:evenodd;fill:rgb(100%,100%,100%);fill-opacity:1;" d="M 96.363281 186.640625 L 102.203125 190.136719 C 102.265625 190.171875 102.34375 190.152344 102.378906 190.09375 C 102.414062 190.035156 102.394531 189.957031 102.335938 189.921875 L 96.492188 186.421875 C 96.433594 186.382812 96.355469 186.402344 96.316406 186.464844 C 96.28125 186.527344 96.300781 186.605469 96.363281 186.640625 "/>
<path style=" stroke:none;fill-rule:evenodd;fill:rgb(100%,100%,100%);fill-opacity:1;" d="M 105.210938 118.007812 L 105.746094 122.488281 C 105.753906 122.558594 105.820312 122.609375 105.890625 122.601562 C 105.960938 122.59375 106.007812 122.527344 106 122.457031 L 105.464844 117.976562 C 105.457031 117.90625 105.394531 117.859375 105.324219 117.867188 C 105.253906 117.875 105.203125 117.9375 105.210938 118.007812 "/>
<path style=" stroke:none;fill-rule:evenodd;fill:rgb(100%,100%,100%);fill-opacity:1;" d="M 109.136719 92.429688 L 105.792969 95.144531 C 105.738281 95.191406 105.730469 95.269531 105.777344 95.324219 C 105.820312 95.378906 105.898438 95.390625 105.957031 95.34375 L 109.300781 92.628906 C 109.355469 92.585938 109.363281 92.503906 109.316406 92.449219 C 109.273438 92.394531 109.191406 92.386719 109.136719 92.429688 "/>
</g>
</svg>
